<mxfile host="65bd71144e">
    <diagram id="Ygu_IVoUQFAt63vxP9d1" name="페이지-1">
        <mxGraphModel dx="945" dy="579" grid="1" gridSize="10" guides="1" tooltips="1" connect="1" arrows="1" fold="1" page="1" pageScale="1" pageWidth="827" pageHeight="1169" math="0" shadow="0">
            <root>
                <mxCell id="0"/>
                <mxCell id="1" parent="0"/>
                <mxCell id="30" value="" style="rounded=0;whiteSpace=wrap;html=1;fillColor=#0050ef;fontColor=#ffffff;strokeColor=#001DBC;" vertex="1" parent="1">
                    <mxGeometry x="438.8" y="103.2" width="151.2" height="20" as="geometry"/>
                </mxCell>
                <mxCell id="29" value="" style="rounded=0;whiteSpace=wrap;html=1;fillColor=#0050ef;fontColor=#ffffff;strokeColor=#001DBC;" vertex="1" parent="1">
                    <mxGeometry x="298.8" y="40" width="120" height="20" as="geometry"/>
                </mxCell>
                <mxCell id="9" style="edgeStyle=none;html=1;entryX=0.5;entryY=0;entryDx=0;entryDy=0;entryPerimeter=0;startArrow=none;" edge="1" parent="1" source="13" target="3">
                    <mxGeometry relative="1" as="geometry"/>
                </mxCell>
                <mxCell id="10" style="edgeStyle=none;html=1;entryX=0.5;entryY=0;entryDx=0;entryDy=0;entryPerimeter=0;startArrow=none;" edge="1" parent="1" source="15" target="4">
                    <mxGeometry relative="1" as="geometry"/>
                </mxCell>
                <mxCell id="11" style="edgeStyle=none;html=1;startArrow=none;" edge="1" parent="1" source="17" target="5">
                    <mxGeometry relative="1" as="geometry"/>
                </mxCell>
                <mxCell id="12" style="edgeStyle=none;html=1;entryX=0.5;entryY=0;entryDx=0;entryDy=0;entryPerimeter=0;startArrow=none;" edge="1" parent="1" source="19" target="6">
                    <mxGeometry relative="1" as="geometry"/>
                </mxCell>
                <mxCell id="2" value="" style="points=[];aspect=fixed;html=1;align=center;shadow=0;dashed=0;image;image=img/lib/allied_telesis/computer_and_terminals/Personal_Computer_with_Server.svg;" vertex="1" parent="1">
                    <mxGeometry x="327.6" y="80" width="62.400000000000006" height="62.400000000000006" as="geometry"/>
                </mxCell>
                <mxCell id="3" value="" style="verticalLabelPosition=bottom;html=1;verticalAlign=top;align=center;strokeColor=none;fillColor=#00BEF2;shape=mxgraph.azure.computer;pointerEvents=1;" vertex="1" parent="1">
                    <mxGeometry x="90" y="360" width="60" height="45" as="geometry"/>
                </mxCell>
                <mxCell id="4" value="" style="verticalLabelPosition=bottom;html=1;verticalAlign=top;align=center;strokeColor=none;fillColor=#00BEF2;shape=mxgraph.azure.computer;pointerEvents=1;" vertex="1" parent="1">
                    <mxGeometry x="230" y="360" width="60" height="45" as="geometry"/>
                </mxCell>
                <mxCell id="5" value="" style="verticalLabelPosition=bottom;html=1;verticalAlign=top;align=center;strokeColor=none;fillColor=#00BEF2;shape=mxgraph.azure.computer;pointerEvents=1;" vertex="1" parent="1">
                    <mxGeometry x="390" y="360" width="60" height="45" as="geometry"/>
                </mxCell>
                <mxCell id="6" value="" style="verticalLabelPosition=bottom;html=1;verticalAlign=top;align=center;strokeColor=none;fillColor=#00BEF2;shape=mxgraph.azure.computer;pointerEvents=1;" vertex="1" parent="1">
                    <mxGeometry x="550" y="360" width="60" height="45" as="geometry"/>
                </mxCell>
                <mxCell id="14" value="" style="edgeStyle=none;html=1;entryX=0.5;entryY=0;entryDx=0;entryDy=0;entryPerimeter=0;endArrow=none;" edge="1" parent="1" source="2" target="13">
                    <mxGeometry relative="1" as="geometry">
                        <mxPoint x="328.85401929260433" y="142.39999999999998" as="sourcePoint"/>
                        <mxPoint x="120" y="360" as="targetPoint"/>
                    </mxGeometry>
                </mxCell>
                <mxCell id="13" value="" style="aspect=fixed;html=1;points=[];align=center;image;fontSize=12;image=img/lib/azure2/other/SSH_Keys.svg;" vertex="1" parent="1">
                    <mxGeometry x="97.33" y="260" width="45.33" height="40" as="geometry"/>
                </mxCell>
                <mxCell id="16" value="" style="edgeStyle=none;html=1;entryX=0.5;entryY=0;entryDx=0;entryDy=0;entryPerimeter=0;endArrow=none;" edge="1" parent="1" source="2" target="15">
                    <mxGeometry relative="1" as="geometry">
                        <mxPoint x="346.41028938906743" y="142.39999999999998" as="sourcePoint"/>
                        <mxPoint x="260" y="360" as="targetPoint"/>
                    </mxGeometry>
                </mxCell>
                <mxCell id="15" value="" style="aspect=fixed;html=1;points=[];align=center;image;fontSize=12;image=img/lib/azure2/other/SSH_Keys.svg;" vertex="1" parent="1">
                    <mxGeometry x="237.32999999999998" y="260" width="45.33" height="40" as="geometry"/>
                </mxCell>
                <mxCell id="18" value="" style="edgeStyle=none;html=1;endArrow=none;" edge="1" parent="1" source="2" target="17">
                    <mxGeometry relative="1" as="geometry">
                        <mxPoint x="365.83811279026895" y="142.39999999999998" as="sourcePoint"/>
                        <mxPoint x="414.9244378916328" y="360" as="targetPoint"/>
                    </mxGeometry>
                </mxCell>
                <mxCell id="17" value="" style="aspect=fixed;html=1;points=[];align=center;image;fontSize=12;image=img/lib/azure2/other/SSH_Keys.svg;" vertex="1" parent="1">
                    <mxGeometry x="397.33" y="260" width="45.33" height="40" as="geometry"/>
                </mxCell>
                <mxCell id="20" value="" style="edgeStyle=none;html=1;entryX=0.592;entryY=0.004;entryDx=0;entryDy=0;entryPerimeter=0;endArrow=none;" edge="1" parent="1" source="2" target="19">
                    <mxGeometry relative="1" as="geometry">
                        <mxPoint x="387.21057113021106" y="142.39999999999998" as="sourcePoint"/>
                        <mxPoint x="585.52" y="360.17999999999984" as="targetPoint"/>
                    </mxGeometry>
                </mxCell>
                <mxCell id="19" value="" style="aspect=fixed;html=1;points=[];align=center;image;fontSize=12;image=img/lib/azure2/other/SSH_Keys.svg;" vertex="1" parent="1">
                    <mxGeometry x="553.4699999999999" y="250" width="45.33" height="40" as="geometry"/>
                </mxCell>
                <mxCell id="21" value="ansible-playbook&amp;nbsp; hello.yml " style="text;html=1;strokeColor=none;fillColor=none;align=center;verticalAlign=middle;whiteSpace=wrap;rounded=0;" vertex="1" parent="1">
                    <mxGeometry x="434.40000000000003" y="101.2" width="160" height="24" as="geometry"/>
                </mxCell>
                <mxCell id="22" value="hello" style="text;html=1;strokeColor=none;fillColor=none;align=center;verticalAlign=middle;whiteSpace=wrap;rounded=0;" vertex="1" parent="1">
                    <mxGeometry x="77.5" y="410" width="85" height="24" as="geometry"/>
                </mxCell>
                <mxCell id="23" value="hello" style="text;html=1;strokeColor=none;fillColor=none;align=center;verticalAlign=middle;whiteSpace=wrap;rounded=0;" vertex="1" parent="1">
                    <mxGeometry x="217.5" y="410" width="85" height="24" as="geometry"/>
                </mxCell>
                <mxCell id="24" value="hello" style="text;html=1;strokeColor=none;fillColor=none;align=center;verticalAlign=middle;whiteSpace=wrap;rounded=0;" vertex="1" parent="1">
                    <mxGeometry x="377.5" y="410" width="85" height="24" as="geometry"/>
                </mxCell>
                <mxCell id="25" value="hello" style="text;html=1;strokeColor=none;fillColor=none;align=center;verticalAlign=middle;whiteSpace=wrap;rounded=0;" vertex="1" parent="1">
                    <mxGeometry x="537.5" y="410" width="85" height="24" as="geometry"/>
                </mxCell>
                <mxCell id="26" value="VLAN60(Contoller)" style="text;html=1;strokeColor=none;fillColor=none;align=center;verticalAlign=middle;whiteSpace=wrap;rounded=0;" vertex="1" parent="1">
                    <mxGeometry x="278.8" y="40" width="160" height="24" as="geometry"/>
                </mxCell>
            </root>
        </mxGraphModel>
    </diagram>
</mxfile>